<svg id='Cancel_Subscription_24' width='24' height='24' viewBox='0 0 24 24' xmlns='http://www.w3.org/2000/svg' xmlns:xlink='http://www.w3.org/1999/xlink'><rect width='24' height='24' stroke='none' fill='#000000' opacity='0'/>


<g transform="matrix(0.42 0 0 0.42 12 12)" >
<g style="" >
<g transform="matrix(1 0 0 1 -6.5 4)" >
<path style="stroke: none; stroke-width: 1; stroke-dasharray: none; stroke-linecap: butt; stroke-dashoffset: 0; stroke-linejoin: miter; stroke-miterlimit: 4; fill: rgb(25,118,210); fill-rule: nonzero; opacity: 1;" transform=" translate(-17.5, -28)" d="M 30 16 L 30 40 C 30 40 11 40 8 40 C 5 40 5 37 5 37 L 5 16 L 30 16 z" stroke-linecap="round" />
</g>
<g transform="matrix(1 0 0 1 0 -2.5)" >
<path style="stroke: none; stroke-width: 1; stroke-dasharray: none; stroke-linecap: butt; stroke-dashoffset: 0; stroke-linejoin: miter; stroke-miterlimit: 4; fill: rgb(144,202,249); fill-rule: nonzero; opacity: 1;" transform=" translate(-24, -21.5)" d="M 11 3 L 11 37 C 11 37 11 40 8 40 L 36 40 C 38.2 40 40 38.2 40 36 L 40 3 L 11 3 z" stroke-linecap="round" />
</g>
<g transform="matrix(1 0 0 1 10 10)" >
<path style="stroke: none; stroke-width: 1; stroke-dasharray: none; stroke-linecap: butt; stroke-dashoffset: 0; stroke-linejoin: miter; stroke-miterlimit: 4; fill: rgb(255,255,255); fill-rule: nonzero; opacity: 1;" transform=" translate(-34, -34)" d="M 42 34 C 42 38.4 38.4 42 34 42 C 29.6 42 26 38.4 26 34 C 26 29.6 29.6 26 34 26 C 38.4 26 42 29.6 42 34 z" stroke-linecap="round" />
</g>
<g transform="matrix(1 0 0 1 10 10)" >
<path style="stroke: none; stroke-width: 1; stroke-dasharray: none; stroke-linecap: butt; stroke-dashoffset: 0; stroke-linejoin: miter; stroke-miterlimit: 4; fill: rgb(244,67,54); fill-rule: nonzero; opacity: 1;" transform=" translate(-34, -34)" d="M 34 44 C 28.5 44 24 39.5 24 34 C 24 28.5 28.5 24 34 24 C 39.5 24 44 28.5 44 34 C 44 39.5 39.5 44 34 44 z M 34 28 C 30.7 28 28 30.7 28 34 C 28 37.3 30.7 40 34 40 C 37.3 40 40 37.3 40 34 C 40 30.700000000000003 37.3 28 34 28 z" stroke-linecap="round" />
</g>
<g transform="matrix(0.71 -0.71 0.71 0.71 10 10)" >
<path style="stroke: none; stroke-width: 1; stroke-dasharray: none; stroke-linecap: butt; stroke-dashoffset: 0; stroke-linejoin: miter; stroke-miterlimit: 4; fill: rgb(244,67,54); fill-rule: nonzero; opacity: 1;" transform=" translate(-34, -34)" d="M 24.8 32 L 43.2 32 L 43.2 36 L 24.8 36 z" stroke-linecap="round" />
</g>
<g transform="matrix(1 0 0 1 2 -2.5)" >
<path style="stroke: none; stroke-width: 1; stroke-dasharray: none; stroke-linecap: butt; stroke-dashoffset: 0; stroke-linejoin: miter; stroke-miterlimit: 4; fill: rgb(25,118,210); fill-rule: nonzero; opacity: 1;" transform=" translate(-26, -21.5)" d="M 27 14 L 35 14 L 35 16 L 27 16 L 27 14 z M 27 18 L 35 18 L 35 20 L 27 20 L 27 18 z M 27 22 L 27 24 L 27.4 24 C 29.299999999999997 22.7 31.599999999999998 22 34 22 L 27 22 z M 22.7 30 L 17 30 L 17 32 L 22.2 32 C 22.3 31.3 22.5 30.6 22.7 30 z M 17 22 L 25 22 L 25 24 L 17 24 L 17 22 z M 25 26.1 L 25 26.1 L 17 26 L 17 28 L 23.6 28 C 24 27.3 24.5 26.7 25 26.1 z M 22 34 L 17 34 L 17 36 L 22.2 36 C 22.1 35.3 22 34.7 22 34 z M 17 7 L 35 7 L 35 11 L 17 11 L 17 7 z M 17 18 L 25 18 L 25 20 L 17 20 L 17 18 z M 17 14 L 25 14 L 25 16 L 17 16 L 17 14 z" stroke-linecap="round" />
</g>
</g>
</g>
</svg>